<svg id="Bahan_copy" viewBox="0 0 64 64" xmlns="http://www.w3.org/2000/svg" data-name="Bahan copy"><g fill="rgb(0,0,0)"><path d="m54 4h-44a6.00657 6.00657 0 0 0 -6 6v44a6.00657 6.00657 0 0 0 6 6h44a6.00657 6.00657 0 0 0 6-6v-44a6.00657 6.00657 0 0 0 -6-6zm-44 2h44a4.004 4.004 0 0 1 4 4v9h-52v-9a4.004 4.004 0 0 1 4-4zm44 52h-44a4.004 4.004 0 0 1 -4-4v-33h52v33a4.004 4.004 0 0 1 -4 4z"/><path d="m33.70215 16.56836a3.383 3.383 0 0 0 -.0001-6.76562 3.383 3.383 0 0 0 .0001 6.76562zm0-4.76563a1.383 1.383 0 0 1 -.00006 2.76563 1.383 1.383 0 0 1 .00006-2.76563z"/><path d="m42.46777 16.56836a3.383 3.383 0 0 0 -.0001-6.76562 3.383 3.383 0 0 0 .0001 6.76562zm0-4.76563a1.383 1.383 0 0 1 -.00006 2.76563 1.383 1.383 0 0 1 .00006-2.76563z"/><path d="m51.23438 16.56836a3.383 3.383 0 0 0 -.00011-6.76562 3.383 3.383 0 0 0 .00011 6.76562zm0-4.76563a1.383 1.383 0 0 1 -.00006 2.76563 1.383 1.383 0 0 1 .00006-2.76563z"/><path d="m23.0282 37.07825a3.71215 3.71215 0 1 0 -6.6239-2.295 3.68361 3.68361 0 0 0 .897 2.39368 6.08181 6.08181 0 0 0 -3.4916 6.00967 2.00078 2.00078 0 0 0 1.99892 1.999h8.94532a2.00094 2.00094 0 0 0 1.999-1.999 6.08329 6.08329 0 0 0 -3.72474-6.10835zm-2.9042-4.01477a1.71941 1.71941 0 0 1 0 3.43852 1.71941 1.71941 0 0 1 0-3.43852zm-4.31445 10.123c-.44121-6.27353 9.44835-6.13114 8.94528-.0009z"/><path d="m20.28125 25.71a12.42865 12.42865 0 0 0 -12.41406 12.414c.6825 16.46885 24.14813 16.46405 24.82815-.00009a12.42867 12.42867 0 0 0 -12.41409-12.41391zm0 22.82813a10.426 10.426 0 0 1 -10.41406-10.41413c.57225-13.81563 20.258-13.81161 20.82814.00008a10.42606 10.42606 0 0 1 -10.41408 10.41401z"/><path d="m38.73926 29h12a1.00019 1.00019 0 0 0 -.00007-2h-11.99993a1.00019 1.00019 0 0 0 0 2z"/><path d="m38.84277 33.35352a1.00018 1.00018 0 0 0 .00007 2h7.7929a1 1 0 0 0 0-2z"/><path d="m54.73926 39h-16a1.00019 1.00019 0 0 0 .00006 2h15.99994a1.00019 1.00019 0 0 0 0-2z"/><path d="m49.82422 48a.99943.99943 0 0 0 -1-1h-12a1 1 0 0 0 0 2h12a.99943.99943 0 0 0 1-1z"/><path d="m52.63574 51.50684h-12a1.00019 1.00019 0 0 0 .00007 2h11.99993a1.00019 1.00019 0 0 0 0-2z"/></g></svg>