<svg height="512" viewBox="0 0 16 16" width="512" xmlns="http://www.w3.org/2000/svg"><g id="_34" data-name="34"><path d="m12 8a4 4 0 1 0 -4 4 4 4 0 0 0 4-4zm-4 3a3 3 0 1 1 3-3 3 3 0 0 1 -3 3z"/><path d="m9 3.11h.14a.49.49 0 0 0 .48-.36l.38-1.11a.5.5 0 0 0 -1-.28l-.3 1.13a.5.5 0 0 0 .3.62z"/><path d="m7 12.89a.5.5 0 0 0 -.62.34l-.38 1.13a.5.5 0 0 0 .34.62h.14a.49.49 0 0 0 .52-.34l.32-1.13a.5.5 0 0 0 -.32-.62z"/><path d="m14.64 9-1.13-.3a.5.5 0 0 0 -.28 1l1.13.32h.14a.5.5 0 0 0 .14-1z"/><path d="m2.63 7.32a.5.5 0 0 0 .14-1l-1.13-.32a.5.5 0 0 0 -.28 1l1.13.32z"/><path d="m14.1 4.22a.51.51 0 0 0 -.68-.2l-1 .57a.51.51 0 0 0 -.2.68.49.49 0 0 0 .44.26.53.53 0 0 0 .24-.06l1-.57a.51.51 0 0 0 .2-.68z"/><path d="m3.13 10.53-1 .57a.51.51 0 0 0 -.2.68.49.49 0 0 0 .44.26.53.53 0 0 0 .21-.04l1-.57a.5.5 0 1 0 -.48-.88z"/><path d="m4.59 3.61a.49.49 0 0 0 .41.26.5.5 0 0 0 .24-.06.51.51 0 0 0 .2-.68l-.57-1a.5.5 0 0 0 -.87.45z"/><path d="m11.41 12.39a.5.5 0 0 0 -.88.48l.57 1a.49.49 0 0 0 .44.26.5.5 0 0 0 .24-.06.51.51 0 0 0 .2-.68z"/></g></svg>