<svg version="1.1" id="Layer_1" xmlns="http://www.w3.org/2000/svg" xmlns:xlink="http://www.w3.org/1999/xlink" x="0px" y="0px" viewBox="0 0 512 512" style="enable-background:new 0 0 512 512;" xml:space="preserve">
<g>
	
		<line style="fill:none;stroke:#000000;stroke-width:20;stroke-linecap:round;stroke-linejoin:round;stroke-miterlimit:10;" x1="427.344" y1="146.044" x2="427.344" y2="293.44"/>
	<path style="fill:none;stroke:#000000;stroke-width:20;stroke-linecap:round;stroke-linejoin:round;stroke-miterlimit:10;" d="&#10;&#9;&#9;M427.344,443.72V482c0,11.05-8.95,20-20,20h-329.8c-11.05,0-20-8.95-20-20V100.57L148.124,10h259.22c11.05,0,20,8.95,20,20v24.924"/>
	<path style="fill:none;stroke:#000000;stroke-width:20;stroke-linecap:round;stroke-linejoin:round;stroke-miterlimit:10;" d="&#10;&#9;&#9;M148.122,10v70.566c0,11.046-8.954,20-20,20H57.544L148.122,10z"/>
	<path style="fill:none;stroke:#000000;stroke-width:20;stroke-linecap:round;stroke-linejoin:round;stroke-miterlimit:10;" d="&#10;&#9;&#9;M444.456,442.72H158.122c-5.523,0-10-4.477-10-10V304.441c0-5.523,4.477-10,10-10h286.335c5.523,0,10,4.477,10,10V432.72&#10;&#9;&#9;C454.456,438.243,449.979,442.72,444.456,442.72z"/>
	
		<line style="fill:none;stroke:#000000;stroke-width:20;stroke-linecap:round;stroke-linejoin:round;stroke-miterlimit:10;" x1="264.688" y1="152.376" x2="217.378" y2="227.169"/>
	
		<polyline style="fill:none;stroke:#000000;stroke-width:20;stroke-linecap:round;stroke-linejoin:round;stroke-miterlimit:10;" points="&#10;&#9;&#9;175.395,227.169 139.348,189.773 175.395,152.376 &#9;"/>
	
		<polyline style="fill:none;stroke:#000000;stroke-width:20;stroke-linecap:round;stroke-linejoin:round;stroke-miterlimit:10;" points="&#10;&#9;&#9;309.492,152.376 345.54,189.773 309.492,227.169 &#9;"/>
	<g>
		<path style="fill:none;stroke:#000000;stroke-width:20;stroke-linecap:round;stroke-linejoin:round;stroke-miterlimit:10;" d="&#10;&#9;&#9;&#9;M238.069,401.109c0,0,9.053,9.11,18.913,3.637c4.865-2.701,7.801-7.91,7.801-13.474v-60.609"/>
	</g>
	<g>
		<path style="fill:none;stroke:#000000;stroke-width:20;stroke-linecap:round;stroke-linejoin:round;stroke-miterlimit:10;" d="&#10;&#9;&#9;&#9;M352.016,338.459c0,0-13.608-11.438-29.654-6.604c-14.734,4.438-16.795,21.428-6.135,28.377c0,0,10.46,4.666,22.061,8.946&#10;&#9;&#9;&#9;c27.927,10.301,15.897,37.319-6.585,37.319c-11.258,0-20.707-4.93-26.426-11.241"/>
	</g>
	
		<line style="fill:none;stroke:#000000;stroke-width:20;stroke-linecap:round;stroke-linejoin:round;stroke-miterlimit:10;" x1="427.344" y1="100.566" x2="427.344" y2="100.566"/>
</g>
<g>
</g>
<g>
</g>
<g>
</g>
<g>
</g>
<g>
</g>
<g>
</g>
<g>
</g>
<g>
</g>
<g>
</g>
<g>
</g>
<g>
</g>
<g>
</g>
<g>
</g>
<g>
</g>
<g>
</g>
</svg>