<svg id="Image" height="512" viewBox="0 0 64 64" width="512" xmlns="http://www.w3.org/2000/svg"><g><path d="m57 8h-50c-1.654 0-3 1.346-3 3v34c0 1.654 1.346 3 3 3h18.719l-1.5 6h-4.219c-1.322 0-1.324 2 0 2h24c1.322 0 1.324-2 0-2h-4.219l-1.5-6h18.719c1.654 0 3-1.346 3-3v-34c0-1.654-1.346-3-3-3zm-50 2h50c.551 0 1 .449 1 1v30h-52v-30c0-.551.449-1 1-1zm30.719 44h-11.438l1.5-6h8.438zm19.281-8h-50c-.551 0-1-.449-1-1v-2h52v2c0 .551-.449 1-1 1z"/><path d="m12 27c1.103 0 2 .897 2 2v3c0 2.206 1.794 4 4 4 1.322 0 1.324-2 0-2-1.103 0-2-.897-2-2v-3c0-1.193-.525-2.267-1.357-3 .832-.733 1.357-1.807 1.357-3v-3c0-1.103.897-2 2-2 .552 0 1-.448 1-1s-.448-1-1-1c-2.206 0-4 1.794-4 4v3c0 1.103-.897 2-2 2-1.322 0-1.324 2 0 2z"/><path d="m48 32c0 1.103-.897 2-2 2-1.322 0-1.324 2 0 2 2.206 0 4-1.794 4-4v-3c0-1.103.897-2 2-2 1.322 0 1.324-2 0-2-1.103 0-2-.897-2-2v-3c0-2.206-1.794-4-4-4-1.322 0-1.324 2 0 2 1.103 0 2 .897 2 2v3c0 1.193.525 2.267 1.357 3-.832.733-1.357 1.807-1.357 3z"/><path d="m27 33c-1.103 0-2-.897-2-2 0-1.322-2-1.324-2 0 0 2.206 1.794 4 4 4s4-1.794 4-4v-13c0-.552-.448-1-1-1h-6c-1.322 0-1.324 2 0 2h5v12c0 1.103-.897 2-2 2z"/><path d="m38 33c-1.103 0-2-.897-2-2 0-1.322-2-1.324-2 0 0 2.206 1.794 4 4 4s4-1.794 4-4c0-.868-.285-1.721-.799-2.399l-4.805-6.406c-.255-.337-.396-.761-.396-1.195 0-1.103.897-2 2-2s2 .897 2 2c0 1.322 2 1.324 2 0 0-2.206-1.794-4-4-4s-4 1.794-4 4c0 .868.285 1.721.799 2.399l4.805 6.406c.255.337.396.761.396 1.195 0 1.103-.897 2-2 2z"/></g></svg>