<svg fill="none" height="24" viewBox="0 0 24 24" width="24" xmlns="http://www.w3.org/2000/svg"><path clip-rule="evenodd" d="m8.17526 2.01042c.82275.09679 1.41126.84223 1.31447 1.66499l-.15586 1.32473h6.97933l.1971-1.67516c.0968-.82275.8422-1.41125 1.665-1.31446.8227.0968 1.4112.84224 1.3144 1.665l-.1558 1.32462h1.1661c.8284 0 1.5.67158 1.5 1.5 0 .82843-.6716 1.5-1.5 1.5h-1.5191l-1 8.49996h1.5191c.8284 0 1.5.6716 1.5 1.5 0 .8285-.6716 1.5-1.5 1.5h-1.872l-.1383 1.1749c-.0968.8228-.8422 1.4113-1.665 1.3145-.8227-.0968-1.4112-.8423-1.3144-1.665l.097-.8244h-6.97931l-.13826 1.1753c-.0968.8228-.84224 1.4113-1.66499 1.3145s-1.41126-.8423-1.31447-1.665l.09703-.8248h-1.1073c-.82843 0-1.5-.6715-1.5-1.5 0-.8284.67157-1.5 1.5-1.5h1.46024l1-8.49996h-1.46024c-.82843 0-1.5-.67157-1.5-1.5 0-.82842.67157-1.5 1.5-1.5h1.81318l.19709-1.67526c.0968-.82275.84224-1.41126 1.66499-1.31446zm6.78494 14.48968 1-8.49996h-6.97927l-1 8.49996z" fill="#160b34" fill-rule="evenodd"/></svg>