<!-- svg format -->
<!-- <svg xmlns="http://www.w3.org/2000/svg" xmlns:xlink="http://www.w3.org/1999/xlink">
  <defs>
    <symbol> id="" viewBox="">

   </symbol>
  </defs>
</svg> -->

<svg xmlns="http://www.w3.org/2000/svg" xmlns:xlink="http://www.w3.org/1999/xlink">
  <defs>

  <!-- arrow down -->
    <symbol id="arrow-down" viewBox="0 0 490.4 490.4" >
      <g><g><path d="M490.4,245.2C490.4,110,380.4,0,245.2,0S0,110,0,245.2s110,245.2,245.2,245.2S490.4,380.4,490.4,245.2z M24.5,245.2
			c0-121.7,99-220.7,220.7-220.7s220.7,99,220.7,220.7s-99,220.7-220.7,220.7S24.5,366.9,24.5,245.2z"/>
		<path d="M253.9,360.4l68.9-68.9c4.8-4.8,4.8-12.5,0-17.3s-12.5-4.8-17.3,0l-48,48V138.7c0-6.8-5.5-12.3-12.3-12.3
			s-12.3,5.5-12.3,12.3v183.4l-48-48c-4.8-4.8-12.5-4.8-17.3,0s-4.8,12.5,0,17.3l68.9,68.9c2.4,2.4,5.5,3.6,8.7,3.6
			S251.5,362.8,253.9,360.4z"/></g></g></symbol>


  <!-- arrow up -->
    <symbol id="arrow-up" enable-background="new 0 0 128 128" viewBox="0 0 128 128"><path id="Up" d="m64 0c-35.289 0-64 28.711-64 64s28.711 64 64 64 64-28.711 64-64-28.711-64-64-64zm0 120c-30.879 0-56-25.121-56-56s25.121-56 56-56 56 25.121 56 56-25.121 56-56 56zm22.828-62.828c1.563 1.563 1.563 4.094 0 5.656-.781.781-1.805 1.172-2.828 1.172s-2.047-.391-2.828-1.172l-13.172-13.172v38.344c0 2.211-1.791 4-4 4s-4-1.789-4-4v-38.344l-13.172 13.172c-1.563 1.563-4.094 1.563-5.656 0s-1.563-4.094 0-5.656l20-20c1.563-1.563 4.094-1.563 5.656 0z"/></symbol>


    <!-- content magic -->
<symbol version="1.1" id="content-magic" viewBox="0 0 512.002 512.002" >
<g>
	<g>
		<path d="M288.265,380.223l-6.303-1.278c-12.911-2.617-22.944-12.651-25.562-25.562l-1.278-6.304
			c-1.474-7.264-7.678-12.338-15.091-12.338s-13.617,5.073-15.091,12.339l-1.278,6.303c-2.617,12.911-12.651,22.945-25.562,25.562
			l-6.303,1.279c-7.264,1.473-12.339,7.678-12.339,15.091c0,7.412,5.074,13.617,12.339,15.091l6.303,1.278
			c12.911,2.617,22.945,12.651,25.562,25.562l1.278,6.304c1.474,7.264,7.678,12.338,15.091,12.338s13.617-5.073,15.091-12.338
			l1.278-6.304c2.617-12.911,12.651-22.945,25.562-25.562l6.303-1.278c7.264-1.473,12.339-7.678,12.339-15.091
			C300.604,387.903,295.53,381.696,288.265,380.223z M285.368,395.452c-0.031,0.011-0.073,0.022-0.127,0.034l-6.303,1.278
			c-18.918,3.836-33.62,18.538-37.456,37.456l-1.278,6.303c-0.011,0.054-0.021,0.095-0.031,0.127c-0.082,0.018-0.197,0.018-0.279,0
			c-0.009-0.03-0.021-0.072-0.031-0.127l-1.278-6.304c-3.836-18.918-18.538-33.621-37.457-37.456l-6.303-1.278
			c-0.054-0.011-0.095-0.022-0.127-0.031c-0.018-0.082-0.018-0.197,0-0.279c0.03-0.01,0.072-0.021,0.127-0.031l6.303-1.279
			c18.919-3.835,33.621-18.538,37.457-37.456l1.278-6.303c0.011-0.054,0.022-0.096,0.031-0.127c0.082-0.018,0.197-0.018,0.279,0
			c0.009,0.03,0.021,0.072,0.031,0.127l1.278,6.303c3.836,18.918,18.538,33.621,37.456,37.456l6.303,1.278
			c0.054,0.011,0.095,0.022,0.127,0.031C285.386,395.255,285.386,395.37,285.368,395.452z"/>
	</g>
</g>
<g>
	<g>
		<path d="M391.298,407.923c-4.203,0-7.611,3.408-7.611,7.611v20.609c0,4.203,3.408,7.611,7.611,7.611s7.611-3.408,7.611-7.611
			v-20.609C398.909,411.331,395.501,407.923,391.298,407.923z"/>
	</g>
</g>
<g>
	<g>
		<path d="M391.298,463.406c-4.203,0-7.611,3.408-7.611,7.611v20.609c0,4.203,3.408,7.611,7.611,7.611s7.611-3.408,7.611-7.611
			v-20.609C398.909,466.814,395.501,463.406,391.298,463.406z"/>
	</g>
</g>
<g>
	<g>
		<path d="M429.345,445.968h-20.609c-4.203,0-7.611,3.408-7.611,7.611c0,4.203,3.408,7.611,7.611,7.611h20.609
			c4.203,0,7.611-3.408,7.611-7.611C436.956,449.376,433.548,445.968,429.345,445.968z"/>
	</g>
</g>
<g>
	<g>
		<path d="M373.861,445.968h-20.609c-4.203,0-7.611,3.408-7.611,7.611c0,4.203,3.408,7.611,7.611,7.611h20.609
			c4.203,0,7.611-3.408,7.611-7.611C381.472,449.376,378.064,445.968,373.861,445.968z"/>
	</g>
</g>
<g>
	<g>
		<path d="M45.657,312.019c-4.203,0-7.611,3.408-7.611,7.611v20.609c0,4.204,3.408,7.611,7.611,7.611s7.611-3.408,7.611-7.611
			v-20.609C53.268,315.427,49.861,312.019,45.657,312.019z"/>
	</g>
</g>
<g>
	<g>
		<path d="M45.657,367.503c-4.203,0-7.611,3.408-7.611,7.611v20.609c0,4.204,3.408,7.611,7.611,7.611s7.611-3.408,7.611-7.611
			v-20.609C53.268,370.911,49.861,367.503,45.657,367.503z"/>
	</g>
</g>
<g>
	<g>
		<path d="M83.704,350.066H63.095c-4.204,0-7.611,3.408-7.611,7.611s3.408,7.611,7.611,7.611h20.609
			c4.203,0,7.611-3.408,7.611-7.611S87.907,350.066,83.704,350.066z"/>
	</g>
</g>
<g>
	<g>
		<path d="M28.22,350.066H7.611c-4.204,0-7.611,3.408-7.611,7.611s3.408,7.611,7.611,7.611H28.22c4.204,0,7.611-3.408,7.611-7.611
			S32.423,350.066,28.22,350.066z"/>
	</g>
</g>
<g>
	<g>
		<path d="M392.284,14.471c-4.203,0-7.611,3.408-7.611,7.611v20.609c0,4.203,3.408,7.611,7.611,7.611s7.611-3.408,7.611-7.611
			V22.083C399.896,17.879,396.488,14.471,392.284,14.471z"/>
	</g>
</g>
<g>
	<g>
		<path d="M392.284,69.955c-4.203,0-7.611,3.408-7.611,7.611v20.609c0,4.203,3.408,7.61,7.611,7.61s7.611-3.408,7.611-7.611V77.567
			C399.896,73.363,396.488,69.955,392.284,69.955z"/>
	</g>
</g>
<g>
	<g>
		<path d="M430.331,52.517h-20.609c-4.204,0-7.611,3.408-7.611,7.611c0,4.203,3.408,7.611,7.611,7.611h20.609
			c4.204,0,7.611-3.408,7.611-7.611C437.942,55.925,434.534,52.517,430.331,52.517z"/>
	</g>
</g>
<g>
	<g>
		<path d="M374.847,52.517h-20.609c-4.204,0-7.611,3.408-7.611,7.611c0,4.203,3.408,7.611,7.611,7.611h20.609
			c4.203,0,7.611-3.408,7.611-7.611C382.458,55.925,379.051,52.517,374.847,52.517z"/>
	</g>
</g>
<g>
	<g>
		<path d="M290.164,118.881l-30.171-6.117c-26.793-5.432-47.616-26.255-53.048-53.048l-6.117-30.17
			c-2.035-10.038-10.283-16.782-20.525-16.782c-10.241,0-18.491,6.745-20.526,16.782l-6.117,30.17
			c-5.432,26.793-26.255,47.616-53.048,53.048l-30.17,6.117c-10.038,2.035-16.782,10.284-16.782,20.525
			c0,10.242,6.745,18.491,16.782,20.525l30.17,6.116c26.793,5.432,47.616,26.255,53.048,53.048l6.117,30.17
			c2.035,10.038,10.284,16.782,20.526,16.782s18.49-6.745,20.525-16.782l6.117-30.17c5.432-26.793,26.255-47.617,53.048-53.048
			l30.171-6.116c10.038-2.035,16.782-10.284,16.782-20.525C306.946,129.166,300.202,120.917,290.164,118.881z M287.14,145.013
			l-30.17,6.117c-32.801,6.65-58.293,32.141-64.943,64.943l-6.117,30.17c-0.863,4.253-4.509,4.584-5.606,4.584
			s-4.744-0.331-5.606-4.584l-6.117-30.17c-6.65-32.801-32.141-58.293-64.943-64.943l-30.17-6.117
			c-4.253-0.863-4.584-4.509-4.584-5.606s0.331-4.744,4.584-5.607l30.17-6.116c32.801-6.65,58.293-32.142,64.943-64.942l6.117-30.17
			c0.863-4.253,4.509-4.584,5.606-4.584s4.743,0.331,5.606,4.584l6.117,30.17c6.65,32.801,32.142,58.293,64.943,64.942l30.17,6.116
			c4.253,0.863,4.584,4.509,4.584,5.607C291.724,140.505,291.393,144.151,287.14,145.013z"/>
	</g>
</g>
<g>
	<g>
		<path d="M497.698,231.343l-23.17-4.698c-19.88-4.031-35.33-19.48-39.36-39.36l-4.698-23.17
			c-1.707-8.421-8.901-14.303-17.493-14.303c-8.593,0-15.787,5.882-17.494,14.303l-4.698,23.17
			c-4.03,19.88-19.479,35.329-39.36,39.36l-23.17,4.698c-8.421,1.707-14.303,8.901-14.303,17.494
			c0,8.593,5.881,15.786,14.303,17.494l23.17,4.698c19.88,4.03,35.33,19.48,39.36,39.359l4.698,23.17
			c1.708,8.421,8.901,14.303,17.495,14.303c8.593,0,15.786-5.882,17.493-14.303l4.698-23.17c4.03-19.88,19.48-35.329,39.36-39.359
			l23.17-4.698c8.421-1.708,14.303-8.901,14.303-17.494C512.002,240.244,506.119,233.051,497.698,231.343z M494.672,251.411
			l-23.17,4.698c-25.887,5.249-46.006,25.367-51.254,51.254l-4.698,23.17c-0.283,1.396-1.149,2.105-2.575,2.105
			c-1.426,0-2.292-0.708-2.575-2.105l-4.698-23.17c-5.248-25.888-25.367-46.006-51.254-51.254l-23.17-4.698
			c-1.396-0.283-2.105-1.15-2.105-2.575s0.708-2.292,2.105-2.575l23.17-4.698c25.888-5.249,46.006-25.367,51.254-51.254l4.698-23.17
			c0.283-1.396,1.15-2.105,2.575-2.105c1.425,0,2.292,0.708,2.575,2.105l4.698,23.17c5.249,25.887,25.367,46.006,51.254,51.254
			l23.17,4.698c1.396,0.283,2.105,1.15,2.105,2.575S496.07,251.128,494.672,251.411z"/>
	</g>
</g>
<g>
</symbol>


<!-- day mode -->
  <symbol id="day-mode" viewBox="0 0 16 16" ><g id="_34" data-name="34"><path d="m12 8a4 4 0 1 0 -4 4 4 4 0 0 0 4-4zm-4 3a3 3 0 1 1 3-3 3 3 0 0 1 -3 3z"/><path d="m9 3.11h.14a.49.49 0 0 0 .48-.36l.38-1.11a.5.5 0 0 0 -1-.28l-.3 1.13a.5.5 0 0 0 .3.62z"/><path d="m7 12.89a.5.5 0 0 0 -.62.34l-.38 1.13a.5.5 0 0 0 .34.62h.14a.49.49 0 0 0 .52-.34l.32-1.13a.5.5 0 0 0 -.32-.62z"/><path d="m14.64 9-1.13-.3a.5.5 0 0 0 -.28 1l1.13.32h.14a.5.5 0 0 0 .14-1z"/><path d="m2.63 7.32a.5.5 0 0 0 .14-1l-1.13-.32a.5.5 0 0 0 -.28 1l1.13.32z"/><path d="m14.1 4.22a.51.51 0 0 0 -.68-.2l-1 .57a.51.51 0 0 0 -.2.68.49.49 0 0 0 .44.26.53.53 0 0 0 .24-.06l1-.57a.51.51 0 0 0 .2-.68z"/><path d="m3.13 10.53-1 .57a.51.51 0 0 0 -.2.68.49.49 0 0 0 .44.26.53.53 0 0 0 .21-.04l1-.57a.5.5 0 1 0 -.48-.88z"/><path d="m4.59 3.61a.49.49 0 0 0 .41.26.5.5 0 0 0 .24-.06.51.51 0 0 0 .2-.68l-.57-1a.5.5 0 0 0 -.87.45z"/><path d="m11.41 12.39a.5.5 0 0 0 -.88.48l.57 1a.49.49 0 0 0 .44.26.5.5 0 0 0 .24-.06.51.51 0 0 0 .2-.68z"/></g></symbol>


    <!-- flexbox -->
      <symbol id="flexbox" viewBox="0 0 48 48" ><g color="#000" fill="#000000" class="color000 svgShape"><path style="-inkscape-stroke:none" d="M1176.3 562.25a1 1 0 0 0-1 1v20a1 1 0 0 0 1 1h11a1 1 0 0 0 1-1v-20a1 1 0 0 0-1-1zm15 0a1 1 0 0 0-1 1v8a1 1 0 0 0 1 1h11a1 1 0 0 0 1-1v-8a1 1 0 0 0-1-1zm0 12a1 1 0 0 0-1 1v8a1 1 0 0 0 1 1h11a1 1 0 0 0 1-1v-8a1 1 0 0 0-1-1zm-14.7-17.9a1.25 1.25 0 1 0 0 2.5 1.25 1.25 0 0 0 0-2.5zm3.8 0a1.25 1.25 0 1 0 0 2.5 1.25 1.25 0 0 0 0-2.5zm3.8 0a1.25 1.25 0 1 0 0 2.5 1.25 1.25 0 0 0 0-2.5z" transform="translate(-1165.3 -546.16)" fill="#000000" class="color000 svgShape"></path><path style="-inkscape-stroke:none" d="M1176 552.16a4.789 4.789 0 0 0-4.777 4.777v7.766a1 1 0 0 0 1 1 1 1 0 0 0 1-1v-7.766a2.75 2.75 0 0 1 2.777-2.777h26.446a2.75 2.75 0 0 1 2.777 2.777v12.338a1 1 0 0 0 1 1 1 1 0 0 0 1-1v-12.338a4.789 4.789 0 0 0-4.777-4.777zm-3.7 15.54a1 1 0 0 0-1 1 1 1 0 0 0 1 1 1 1 0 0 0 1-1 1 1 0 0 0-1-1zm0 4a1 1 0 0 0-1 1v10.68a4.789 4.789 0 0 0 4.777 4.777h26.446a4.789 4.789 0 0 0 4.777-4.777v-10.108a1 1 0 0 0-1-1 1 1 0 0 0-1 1v10.108a2.75 2.75 0 0 1-2.777 2.777h-26.446a2.75 2.75 0 0 1-2.777-2.777V572.7a1 1 0 0 0-1-1z" transform="translate(-1165.3 -546.16)" fill="#000000" class="color000 svgShape"></path><path style="-inkscape-stroke:none" d="M1188.6 556.6a1 1 0 0 0-1 1 1 1 0 0 0 1 1h13.416a1 1 0 0 0 1-1 1 1 0 0 0-1-1z" transform="translate(-1165.3 -546.16)" fill="#000000" class="color000 svgShape"></path></g></g></symbol>


      <!-- git -->
        <symbol id="git" viewBox="0 0 24 24"><clipPath id="clip0_1_1298"><path d="m0 0h24v24h-24z"/></clipPath><g clip-path="url(#clip0_1_1298)"><path d="m7.10495 15.21c.65365.2591 1.19556.7395 1.53118 1.3574.33562.6178.44362 1.3339.30517 2.0233s-.51457 1.3082-1.06272 1.7486-1.23353.6743-1.93654.6609c-.70301-.0133-1.37901-.2731-1.91004-.734-.53102-.4609-.88336-1.0936-.99552-1.7877s.02297-1.4056.38182-2.0103.91862-1.0641 1.58165-1.2982v-6.34002c-.6675-.2359-1.2301-.7002-1.58836-1.3108-.35827-.61061-.48913-1.32822-.36946-2.02599.11968-.69776.48218-1.33075 1.02344-1.78708s1.22642-.70662 1.93438-.70662c.70795 0 1.39311.25029 1.93437.70662s.90376 1.08932 1.02344 1.78708c.11967.69777-.01119 1.41538-.36945 2.02599-.35827.6106-.92087 1.0749-1.58836 1.3108v3.17002c.836-.628 1.874-1 3-1h3.99995c.6582 0 1.298-.2163 1.8211-.6156.5231-.39936.9005-.95958 1.0739-1.59442-.6568-.26009-1.2008-.74357-1.5362-1.36531-.3354-.62173-.4408-1.34187-.2975-2.03363s.5261-1.3108 1.0809-1.74812 1.2461-.66489 1.9522-.64265 1.3817.29286 1.9079.76423.8692 1.11326.9687 1.81267-.0509 1.41149-.4248 2.01089c-.3739.59939-.9473 1.04768-1.6192 1.26592-.2014 1.16072-.806 2.21302-1.7074 2.97152-.9013.7585-2.0415 1.1744-3.2196 1.1745h-3.99995c-.65811 0-1.29799.2163-1.8211.6156-.5231.3993-.90044.9595-1.0739 1.5944zm-1.105 1.79c-.26522 0-.51957.1053-.70711.2929-.18754.1875-.29289.4419-.29289.7071s.10535.5196.29289.7071.44189.2929.70711.2929c.26521 0 .51957-.1054.7071-.2929.18754-.1875.2929-.4419.2929-.7071s-.10536-.5196-.2929-.7071c-.18753-.1876-.44189-.2929-.7071-.2929zm0-12.00002c-.26522 0-.51957.10536-.70711.2929-.18754.18753-.29289.44189-.29289.7071 0 .26522.10535.51957.29289.70711.18754.18753.44189.29289.70711.29289.26521 0 .51957-.10536.7071-.29289.18754-.18754.2929-.44189.2929-.70711 0-.26521-.10536-.51957-.2929-.7071-.18753-.18754-.44189-.2929-.7071-.2929zm11.99995 0c-.2652 0-.5195.10536-.7071.2929-.1875.18753-.2929.44189-.2929.7071 0 .26522.1054.51957.2929.70711.1876.18753.4419.29289.7071.29289.2653 0 .5196-.10536.7072-.29289.1875-.18754.2928-.44189.2928-.70711 0-.26521-.1053-.51957-.2928-.7071-.1876-.18754-.4419-.2929-.7072-.2929z"/></g></symbol>



<!-- go down -->
  <symbol id="go-down" enable-background="new 0 0 512 512" viewBox="0 0 512 512"><g id="_x30_9_Arrow_Down"><g><path d="m257.001 6.022h-2.151c-36.469 0-66.137 29.668-66.137 66.131v206.926l-29.563-29.563c-25.785-25.774-67.753-25.779-93.538.017-25.84 25.828-25.856 67.689.012 93.532l143.678 143.585c25.781 25.769 67.717 25.774 93.503-.012l143.574-143.58c25.857-25.833 25.861-67.677 0-93.515-25.812-25.824-67.724-25.851-93.561.035l-29.691 29.744v-207.169c-.001-36.463-29.669-66.131-66.126-66.131zm112.673 260.38c16.514-16.55 43.32-16.562 59.871-.023s16.551 43.308 0 59.848l-143.574 143.58c-16.508 16.496-43.351 16.502-59.836.006l-143.678-143.593c-16.534-16.51-16.563-43.314-.012-59.853l.012-.017c16.501-16.489 43.351-16.497 59.859 0l49.885 49.89c3.418 3.412 8.533 4.435 12.974 2.581 4.441-1.843 7.347-6.185 7.347-10.998v-235.67c0-23.338 18.984-42.322 42.328-42.322h2.151c23.332 0 42.316 18.984 42.316 42.322v235.943c0 4.819 2.906 9.161 7.359 10.998 4.429 1.837 9.579.82 12.974-2.587z"/></g></g><g id="Layer_1"/></symbol>



<!-- go top -->
  <symbol id="go-top" enable-background="new 0 0 512 512" viewBox="0 0 512 512" xmlns="http://www.w3.org/2000/svg"><g id="_x30_7_Arrow_Up"><g><path d="m255.002 505.976h2.145c36.463 0 66.131-29.668 66.131-66.131v-206.932l29.575 29.569c25.841 25.853 67.677 25.85 93.515 0l.017-.017c25.845-25.833 25.849-67.695-.012-93.532l-143.671-143.592c-25.785-25.762-67.735-25.756-93.509.017l-143.574 143.58c-25.853 25.841-25.85 67.677 0 93.515 25.824 25.824 67.712 25.851 93.55-.035l29.703-29.744v207.171c-.001 36.463 29.667 66.131 66.13 66.131zm-112.679-260.38c-16.516 16.54-43.32 16.574-59.871.023-16.511-16.511-16.572-43.275 0-59.848l143.574-143.58c16.496-16.496 43.345-16.491 59.842-.006l143.673 143.591c16.518 16.494 16.584 43.281.012 59.853l-.017.017c-15.985 15.997-43.863 15.997-59.848 0l-49.896-49.89c-3.418-3.412-8.521-4.441-12.974-2.581-4.447 1.843-7.347 6.185-7.347 10.998v235.67c0 23.338-18.984 42.322-42.322 42.322h-2.145c-23.338 0-42.322-18.984-42.322-42.322v-235.942c0-4.819-2.901-9.161-7.353-10.998-1.471-.61-3.017-.907-4.551-.907-3.098 0-6.144 1.209-8.423 3.493z"/></g></g><g id="Layer_1"/></symbol>



<!-- grid -->
<symbol id="grid"  viewBox="0 0 490.667 490.667" >
<path d="M480,192c5.891,0,10.667-4.776,10.667-10.667c0-5.891-4.776-10.667-10.667-10.667h-32V64h32
	c5.891,0,10.667-4.776,10.667-10.667S485.891,42.667,480,42.667h-32v-32C448,4.776,443.224,0,437.333,0s-10.667,4.776-10.667,10.667
	v32H320v-32C320,4.776,315.224,0,309.333,0s-10.667,4.776-10.667,10.667v32H192v-32C192,4.776,187.224,0,181.333,0
	c-5.891,0-10.667,4.776-10.667,10.667v32H64v-32C64,4.776,59.224,0,53.333,0S42.667,4.776,42.667,10.667v32h-32
	C4.776,42.667,0,47.442,0,53.333S4.776,64,10.667,64h32v106.667h-32C4.776,170.667,0,175.442,0,181.333
	C0,187.224,4.776,192,10.667,192h32v106.667h-32C4.776,298.667,0,303.442,0,309.333S4.776,320,10.667,320h32v106.667h-32
	C4.776,426.667,0,431.442,0,437.333S4.776,448,10.667,448h32v32c0,5.891,4.776,10.667,10.667,10.667S64,485.891,64,480v-32h106.667
	v32c0,5.891,4.776,10.667,10.667,10.667c5.891,0,10.667-4.776,10.667-10.667v-32h106.667v32c0,5.891,4.776,10.667,10.667,10.667
	S320,485.891,320,480v-32h106.667v32c0,5.891,4.776,10.667,10.667,10.667S448,485.891,448,480v-32h32
	c5.891,0,10.667-4.776,10.667-10.667s-4.776-10.667-10.667-10.667h-32V320h32c5.891,0,10.667-4.776,10.667-10.667
	s-4.776-10.667-10.667-10.667h-32V192H480z M426.667,64v106.667H320V64H426.667z M298.667,64v106.667H192V64H298.667z M298.667,192
	v106.667H192V192H298.667z M64,64h106.667v106.667H64V64z M64,192h106.667v106.667H64V192z M64,426.667V320h106.667v106.667H64z
	 M192,426.667V320h106.667v106.667H192z M426.667,426.667H320V320h106.667V426.667z M426.667,298.667H320V192h106.667V298.667z"/>
   </symbol>


<!-- home -->
  <symbol id="home" enable-background="new 0 0 512 512" viewBox="0 0 512 512"><g><path d="m426 495.983h-340c-25.364 0-46-20.635-46-46v-242.02c0-8.836 7.163-16 16-16s16 7.164 16 16v242.02c0 7.72 6.28 14 14 14h340c7.72 0 14-6.28 14-14v-242.02c0-8.836 7.163-16 16-16s16 7.164 16 16v242.02c0 25.364-20.635 46-46 46z"/><path d="m496 263.958c-4.095 0-8.189-1.562-11.313-4.687l-198.989-198.987c-16.375-16.376-43.02-16.376-59.396 0l-198.988 198.988c-6.248 6.249-16.379 6.249-22.627 0-6.249-6.248-6.249-16.379 0-22.627l198.988-198.989c28.852-28.852 75.799-28.852 104.65 0l198.988 198.988c6.249 6.249 6.249 16.379 0 22.627-3.123 3.125-7.218 4.687-11.313 4.687z"/><path d="m320 495.983h-128c-8.837 0-16-7.164-16-16v-142c0-27.57 22.43-50 50-50h60c27.57 0 50 22.43 50 50v142c0 8.836-7.163 16-16 16zm-112-32h96v-126c0-9.925-8.075-18-18-18h-60c-9.925 0-18 8.075-18 18z"/></g></symbol>


  <!-- nav close -->
<symbol id="nav-close" viewBox="0 0 294.843 294.843">
<g>
	<path d="M147.421,0C66.133,0,0,66.133,0,147.421s66.133,147.421,147.421,147.421c38.287,0,74.567-14.609,102.159-41.136
		c2.389-2.296,2.464-6.095,0.167-8.483c-2.295-2.388-6.093-2.464-8.483-0.167c-25.345,24.367-58.672,37.786-93.842,37.786
		C72.75,282.843,12,222.093,12,147.421S72.75,12,147.421,12s135.421,60.75,135.421,135.421c0,16.842-3.052,33.273-9.071,48.835
		c-1.195,3.091,0.341,6.565,3.432,7.761c3.092,1.193,6.565-0.341,7.761-3.432c6.555-16.949,9.879-34.836,9.879-53.165
		C294.843,66.133,228.71,0,147.421,0z"/>
	<path d="M167.619,160.134c-2.37-2.319-6.168-2.277-8.485,0.09c-2.318,2.368-2.277,6.167,0.09,8.485l47.236,46.236
		c1.168,1.143,2.683,1.712,4.197,1.712c1.557,0,3.113-0.603,4.288-1.803c2.318-2.368,2.277-6.167-0.09-8.485L167.619,160.134z"/>
	<path d="M125.178,133.663c1.171,1.171,2.707,1.757,4.243,1.757s3.071-0.586,4.243-1.757c2.343-2.343,2.343-6.142,0-8.485
		L88.428,79.942c-2.343-2.343-6.143-2.343-8.485,0c-2.343,2.343-2.343,6.142,0,8.485L125.178,133.663z"/>
	<path d="M214.9,79.942c-2.343-2.343-6.143-2.343-8.485,0L79.942,206.415c-2.343,2.343-2.343,6.142,0,8.485
		c1.171,1.171,2.707,1.757,4.243,1.757s3.071-0.586,4.243-1.757L214.9,88.428C217.243,86.084,217.243,82.286,214.9,79.942z"/>
</g>
</symbol>


<!-- nav open -->
<symbol id="nav-open" viewBox="0 0 294.843 294.843" >
<g>
	<path d="M147.421,0C66.133,0,0,66.133,0,147.421c0,40.968,17.259,80.425,47.351,108.255c2.433,2.25,6.229,2.101,8.479-0.331
		c2.25-2.434,2.102-6.229-0.332-8.479C27.854,221.3,12,185.054,12,147.421C12,72.75,72.75,12,147.421,12
		s135.421,60.75,135.421,135.421s-60.75,135.421-135.421,135.421c-3.313,0-6,2.687-6,6s2.687,6,6,6
		c81.289,0,147.421-66.133,147.421-147.421S228.71,0,147.421,0z"/>
	<path d="M84.185,90.185h126.473c3.313,0,6-2.687,6-6s-2.687-6-6-6H84.185c-3.313,0-6,2.687-6,6S80.872,90.185,84.185,90.185z"/>
	<path d="M84.185,153.421h126.473c3.313,0,6-2.687,6-6s-2.687-6-6-6H84.185c-3.313,0-6,2.687-6,6S80.872,153.421,84.185,153.421z"/>
	<path d="M216.658,210.658c0-3.313-2.687-6-6-6H84.185c-3.313,0-6,2.687-6,6s2.687,6,6,6h126.473
		C213.971,216.658,216.658,213.971,216.658,210.658z"/>
</symbol>



<!-- night mode -->
  <symbol id="night-mode" viewBox="0 0 24 24"><g id="Layer_2" data-name="Layer 2"><path d="m12 22.75a10.75 10.75 0 0 1 -1.085-21.45.754.754 0 0 1 .7.332.746.746 0 0 1 .033.774 7.387 7.387 0 0 0 -.898 3.594 7.021 7.021 0 0 0 6.75 7.25 6.385 6.385 0 0 0 4.021-1.436.75.75 0 0 1 1.218.615 10.713 10.713 0 0 1 -10.739 10.321zm-2.261-19.724a9.252 9.252 0 1 0 11.317 10.868 7.771 7.771 0 0 1 -3.556.856 8.521 8.521 0 0 1 -8.25-8.75 9.045 9.045 0 0 1 .489-2.974z"/></g></symbol>



  <!-- sun mode -->
<symbol id="day-mode" viewBox="0 0 512 512" ><path d="M256,96.745C168.187,96.745,96.745,168.187,96.745,256S168.187,415.255,256,415.255,415.255,343.813,415.255,256,343.813,96.745,256,96.745Zm0,298.51c-76.786,0-139.255-62.469-139.255-139.255S179.214,116.745,256,116.745,395.255,179.214,395.255,256,332.786,395.255,256,395.255Z"/><path d="M256,67.293a10,10,0,0,0,10-10V10a10,10,0,0,0-20,0V57.293A10,10,0,0,0,256,67.293Z"/><path d="M256,444.707a10,10,0,0,0-10,10V502a10,10,0,0,0,20,0V454.707A10,10,0,0,0,256,444.707Z"/><path d="M147.986,88.915a10,10,0,0,0,17.321-10L141.66,37.958a10,10,0,1,0-17.32,10Z"/><path d="M364.014,423.085a10,10,0,0,0-17.321,10l23.647,40.957a10,10,0,1,0,17.32-10Z"/><path d="M88.915,147.986,47.958,124.34a10,10,0,1,0-10,17.32l40.957,23.647a10,10,0,0,0,10-17.321Z"/><path d="M474.042,370.34l-40.957-23.647a10,10,0,0,0-10,17.321l40.957,23.646a10,10,0,1,0,10-17.32Z"/><path d="M67.293,256a10,10,0,0,0-10-10H10a10,10,0,0,0,0,20H57.293A10,10,0,0,0,67.293,256Z"/><path d="M502,246H454.707a10,10,0,0,0,0,20H502a10,10,0,0,0,0-20Z"/><path d="M78.915,346.693,37.958,370.34a10,10,0,1,0,10,17.32l40.957-23.646a10,10,0,0,0-10-17.321Z"/><path d="M428.1,166.648a9.953,9.953,0,0,0,4.99-1.341l40.957-23.647a10,10,0,1,0-10-17.32l-40.957,23.646a10,10,0,0,0,5.01,18.662Z"/><path d="M161.646,419.425a10,10,0,0,0-13.66,3.66L124.34,464.042a10,10,0,1,0,17.32,10l23.647-40.957A10,10,0,0,0,161.646,419.425Z"/><path d="M350.354,92.575a10,10,0,0,0,13.66-3.66L387.66,47.958a10,10,0,1,0-17.32-10L346.693,78.915A10,10,0,0,0,350.354,92.575Z"/></symbol>



<!-- html -->
<symbol id="html" viewBox="0 0 512 512" >
<g>
	<g>
		<g>
			<path d="M315.36,4.64C312.341,1.645,308.253-0.024,304,0H48C21.49,0,0,21.491,0,48v416c0,26.51,21.49,48,48,48h112v-32H48
				c-8.837,0-16-7.163-16-16V48c0-8.837,7.163-16,16-16h240v64c0,17.673,14.327,32,32,32h64v48h32v-64
				c0.025-4.253-1.645-8.341-4.64-11.36L315.36,4.64z"/>
			<polygon points="176,288 208,288 208,416 240,416 240,288 272,288 272,256 176,256 			"/>
			<polygon points="128,320 96,320 96,256 64,256 64,416 96,416 96,352 128,352 128,416 160,416 160,256 128,256 			"/>
			<path d="M406.08,257.28c-5.99-2.465-12.875-1.075-17.44,3.52L352,297.44l-36.64-36.64c-6.223-6.274-16.353-6.316-22.627-0.093
				c-3.013,2.988-4.715,7.05-4.733,11.293v144h32V310.56l20.64,20.64c6.241,6.204,16.319,6.204,22.56,0l20.8-20.64V416h32V272
				C415.968,265.541,412.055,259.735,406.08,257.28z"/>
			<path d="M464,384V256h-32v144c0,8.837,7.163,16,16,16h64v-32H464z"/>
		</g>
	</g>
</g>
</symbol>

<!-- markdown -->
	<symbol id="markdown" fill="none" height="24" viewBox="0 0 24 24" width="24"><path clip-rule="evenodd" d="m8.17526 2.01042c.82275.09679 1.41126.84223 1.31447 1.66499l-.15586 1.32473h6.97933l.1971-1.67516c.0968-.82275.8422-1.41125 1.665-1.31446.8227.0968 1.4112.84224 1.3144 1.665l-.1558 1.32462h1.1661c.8284 0 1.5.67158 1.5 1.5 0 .82843-.6716 1.5-1.5 1.5h-1.5191l-1 8.49996h1.5191c.8284 0 1.5.6716 1.5 1.5 0 .8285-.6716 1.5-1.5 1.5h-1.872l-.1383 1.1749c-.0968.8228-.8422 1.4113-1.665 1.3145-.8227-.0968-1.4112-.8423-1.3144-1.665l.097-.8244h-6.97931l-.13826 1.1753c-.0968.8228-.84224 1.4113-1.66499 1.3145s-1.41126-.8423-1.31447-1.665l.09703-.8248h-1.1073c-.82843 0-1.5-.6715-1.5-1.5 0-.8284.67157-1.5 1.5-1.5h1.46024l1-8.49996h-1.46024c-.82843 0-1.5-.67157-1.5-1.5 0-.82842.67157-1.5 1.5-1.5h1.81318l.19709-1.67526c.0968-.82275.84224-1.41126 1.66499-1.31446zm6.78494 14.48968 1-8.49996h-6.97927l-1 8.49996z" fill="#160b34" fill-rule="evenodd"/></symbol>


<!-- dom -->
	<symbol id="dom" viewBox="0 0 512 512" >
<g>
		<line style="fill:none;stroke:#000000;stroke-width:20;stroke-linecap:round;stroke-linejoin:round;stroke-miterlimit:10;" x1="427.344" y1="146.044" x2="427.344" y2="293.44"/>
	<path style="fill:none;stroke:#000000;stroke-width:20;stroke-linecap:round;stroke-linejoin:round;stroke-miterlimit:10;" d="&#10;&#9;&#9;M427.344,443.72V482c0,11.05-8.95,20-20,20h-329.8c-11.05,0-20-8.95-20-20V100.57L148.124,10h259.22c11.05,0,20,8.95,20,20v24.924"/>
	<path style="fill:none;stroke:#000000;stroke-width:20;stroke-linecap:round;stroke-linejoin:round;stroke-miterlimit:10;" d="&#10;&#9;&#9;M148.122,10v70.566c0,11.046-8.954,20-20,20H57.544L148.122,10z"/>
	<path style="fill:none;stroke:#000000;stroke-width:20;stroke-linecap:round;stroke-linejoin:round;stroke-miterlimit:10;" d="&#10;&#9;&#9;M444.456,442.72H158.122c-5.523,0-10-4.477-10-10V304.441c0-5.523,4.477-10,10-10h286.335c5.523,0,10,4.477,10,10V432.72&#10;&#9;&#9;C454.456,438.243,449.979,442.72,444.456,442.72z"/>

		<line style="fill:none;stroke:#000000;stroke-width:20;stroke-linecap:round;stroke-linejoin:round;stroke-miterlimit:10;" x1="264.688" y1="152.376" x2="217.378" y2="227.169"/>

		<polyline style="fill:none;stroke:#000000;stroke-width:20;stroke-linecap:round;stroke-linejoin:round;stroke-miterlimit:10;" points="&#10;&#9;&#9;175.395,227.169 139.348,189.773 175.395,152.376 &#9;"/>

		<polyline style="fill:none;stroke:#000000;stroke-width:20;stroke-linecap:round;stroke-linejoin:round;stroke-miterlimit:10;" points="&#10;&#9;&#9;309.492,152.376 345.54,189.773 309.492,227.169 &#9;"/>
	<g>
		<path style="fill:none;stroke:#000000;stroke-width:20;stroke-linecap:round;stroke-linejoin:round;stroke-miterlimit:10;" d="&#10;&#9;&#9;&#9;M238.069,401.109c0,0,9.053,9.11,18.913,3.637c4.865-2.701,7.801-7.91,7.801-13.474v-60.609"/>
	</g>
	<g>
		<path style="fill:none;stroke:#000000;stroke-width:20;stroke-linecap:round;stroke-linejoin:round;stroke-miterlimit:10;" d="&#10;&#9;&#9;&#9;M352.016,338.459c0,0-13.608-11.438-29.654-6.604c-14.734,4.438-16.795,21.428-6.135,28.377c0,0,10.46,4.666,22.061,8.946&#10;&#9;&#9;&#9;c27.927,10.301,15.897,37.319-6.585,37.319c-11.258,0-20.707-4.93-26.426-11.241"/>
	</g>

		<line style="fill:none;stroke:#000000;stroke-width:20;stroke-linecap:round;stroke-linejoin:round;stroke-miterlimit:10;" x1="427.344" y1="100.566" x2="427.344" y2="100.566"/>
</g>
</symbol>

<!-- account information -->
<symbol id="accountInfo" viewBox="0 0 64 64"><g fill="rgb(0,0,0)"><path d="m54 4h-44a6.00657 6.00657 0 0 0 -6 6v44a6.00657 6.00657 0 0 0 6 6h44a6.00657 6.00657 0 0 0 6-6v-44a6.00657 6.00657 0 0 0 -6-6zm-44 2h44a4.004 4.004 0 0 1 4 4v9h-52v-9a4.004 4.004 0 0 1 4-4zm44 52h-44a4.004 4.004 0 0 1 -4-4v-33h52v33a4.004 4.004 0 0 1 -4 4z"/><path d="m33.70215 16.56836a3.383 3.383 0 0 0 -.0001-6.76562 3.383 3.383 0 0 0 .0001 6.76562zm0-4.76563a1.383 1.383 0 0 1 -.00006 2.76563 1.383 1.383 0 0 1 .00006-2.76563z"/><path d="m42.46777 16.56836a3.383 3.383 0 0 0 -.0001-6.76562 3.383 3.383 0 0 0 .0001 6.76562zm0-4.76563a1.383 1.383 0 0 1 -.00006 2.76563 1.383 1.383 0 0 1 .00006-2.76563z"/><path d="m51.23438 16.56836a3.383 3.383 0 0 0 -.00011-6.76562 3.383 3.383 0 0 0 .00011 6.76562zm0-4.76563a1.383 1.383 0 0 1 -.00006 2.76563 1.383 1.383 0 0 1 .00006-2.76563z"/><path d="m23.0282 37.07825a3.71215 3.71215 0 1 0 -6.6239-2.295 3.68361 3.68361 0 0 0 .897 2.39368 6.08181 6.08181 0 0 0 -3.4916 6.00967 2.00078 2.00078 0 0 0 1.99892 1.999h8.94532a2.00094 2.00094 0 0 0 1.999-1.999 6.08329 6.08329 0 0 0 -3.72474-6.10835zm-2.9042-4.01477a1.71941 1.71941 0 0 1 0 3.43852 1.71941 1.71941 0 0 1 0-3.43852zm-4.31445 10.123c-.44121-6.27353 9.44835-6.13114 8.94528-.0009z"/><path d="m20.28125 25.71a12.42865 12.42865 0 0 0 -12.41406 12.414c.6825 16.46885 24.14813 16.46405 24.82815-.00009a12.42867 12.42867 0 0 0 -12.41409-12.41391zm0 22.82813a10.426 10.426 0 0 1 -10.41406-10.41413c.57225-13.81563 20.258-13.81161 20.82814.00008a10.42606 10.42606 0 0 1 -10.41408 10.41401z"/><path d="m38.73926 29h12a1.00019 1.00019 0 0 0 -.00007-2h-11.99993a1.00019 1.00019 0 0 0 0 2z"/><path d="m38.84277 33.35352a1.00018 1.00018 0 0 0 .00007 2h7.7929a1 1 0 0 0 0-2z"/><path d="m54.73926 39h-16a1.00019 1.00019 0 0 0 .00006 2h15.99994a1.00019 1.00019 0 0 0 0-2z"/><path d="m49.82422 48a.99943.99943 0 0 0 -1-1h-12a1 1 0 0 0 0 2h12a.99943.99943 0 0 0 1-1z"/><path d="m52.63574 51.50684h-12a1.00019 1.00019 0 0 0 .00007 2h11.99993a1.00019 1.00019 0 0 0 0-2z"/></g></symbol>


<!-- javascript -->
	<symbol id="js"  viewBox="0 0 64 64" ><g><path d="m57 8h-50c-1.654 0-3 1.346-3 3v34c0 1.654 1.346 3 3 3h18.719l-1.5 6h-4.219c-1.322 0-1.324 2 0 2h24c1.322 0 1.324-2 0-2h-4.219l-1.5-6h18.719c1.654 0 3-1.346 3-3v-34c0-1.654-1.346-3-3-3zm-50 2h50c.551 0 1 .449 1 1v30h-52v-30c0-.551.449-1 1-1zm30.719 44h-11.438l1.5-6h8.438zm19.281-8h-50c-.551 0-1-.449-1-1v-2h52v2c0 .551-.449 1-1 1z"/><path d="m12 27c1.103 0 2 .897 2 2v3c0 2.206 1.794 4 4 4 1.322 0 1.324-2 0-2-1.103 0-2-.897-2-2v-3c0-1.193-.525-2.267-1.357-3 .832-.733 1.357-1.807 1.357-3v-3c0-1.103.897-2 2-2 .552 0 1-.448 1-1s-.448-1-1-1c-2.206 0-4 1.794-4 4v3c0 1.103-.897 2-2 2-1.322 0-1.324 2 0 2z"/><path d="m48 32c0 1.103-.897 2-2 2-1.322 0-1.324 2 0 2 2.206 0 4-1.794 4-4v-3c0-1.103.897-2 2-2 1.322 0 1.324-2 0-2-1.103 0-2-.897-2-2v-3c0-2.206-1.794-4-4-4-1.322 0-1.324 2 0 2 1.103 0 2 .897 2 2v3c0 1.193.525 2.267 1.357 3-.832.733-1.357 1.807-1.357 3z"/><path d="m27 33c-1.103 0-2-.897-2-2 0-1.322-2-1.324-2 0 0 2.206 1.794 4 4 4s4-1.794 4-4v-13c0-.552-.448-1-1-1h-6c-1.322 0-1.324 2 0 2h5v12c0 1.103-.897 2-2 2z"/><path d="m38 33c-1.103 0-2-.897-2-2 0-1.322-2-1.324-2 0 0 2.206 1.794 4 4 4s4-1.794 4-4c0-.868-.285-1.721-.799-2.399l-4.805-6.406c-.255-.337-.396-.761-.396-1.195 0-1.103.897-2 2-2s2 .897 2 2c0 1.322 2 1.324 2 0 0-2.206-1.794-4-4-4s-4 1.794-4 4c0 .868.285 1.721.799 2.399l4.805 6.406c.255.337.396.761.396 1.195 0 1.103-.897 2-2 2z"/></g></symbol>
  </defs>
</svg>
