<svg id="Layer_2_00000168837007742171168030000004474150160531371952_" height="512" width="512" xmlns="http://www.w3.org/2000/svg"><g id="Icon"><g id="_02"><path d="M319.2 364.4c0-13.7-11.1-24.8-24.8-24.8h27.1c13.7 0 24.8-11.1 24.8-24.8 0-13.7-11.1-24.8-24.8-24.8h24.4c13.7 0 24.8-11.1 24.8-24.8 0-13.7-11.1-24.8-24.8-24.8h92.9c13.7 0 24.8-11.1 24.8-24.8 0-13.7-11.1-24.8-24.8-24.8H260.2L288 163c9.7-9.7 9.7-25.4 0-35.1-9.7-9.7-25.4-9.7-35.1 0l-80.8 71.4c-9.9 8.7-22.6 13.6-35.8 13.6h-15.6v148.9h26c6.7 0 13.3 1.2 19.5 3.6l52.6 20.3c6.2 2.4 12.8 3.6 19.5 3.6h56.2c13.6 0 24.7-11.2 24.7-24.9z" fill="#ffccbc"/><g fill="#fcb39f"><path d="M260.3 190.7h-12.8l47.6-47.6c.7 7.1-1.7 14.5-7.2 19.9zM438.7 240.3H287.6c-2.5 0-4.5-2-4.5-4.5s2-4.5 4.5-4.5h170.3c-.5.6-1 1.2-1.6 1.8-4.5 4.5-10.7 7.2-17.6 7.2zM345.8 290h-67.2c-2.5 0-4.5-2-4.5-4.5s2-4.5 4.5-4.5H365c-.5.6-1 1.2-1.6 1.8-4.6 4.4-10.8 7.2-17.6 7.2zM321.4 339.6h-51.9c-2.5 0-4.5-2-4.5-4.5s2-4.5 4.5-4.5h71c-.5.6-1 1.2-1.6 1.8-4.4 4.4-10.6 7.2-17.5 7.2zM294.4 389.2h-33.8c-2.5 0-4.5-2-4.5-4.5s2-4.5 4.5-4.5h53c-.5.6-1 1.2-1.6 1.8-4.6 4.4-10.8 7.2-17.6 7.2z"/></g><path d="M129.7 210.9v153.4c0 15-12.1 27.1-27.1 27.1H75.5c-15 0-27.1-12.1-27.1-27.1V210.9c0-15 12.1-27.1 27.1-27.1h27.1c15 0 27.1 12.1 27.1 27.1z" fill="#6192ff"/><path d="M89.1 183.8v207.5H75.5c-14.9 0-27.1-12.1-27.1-27.1V210.9c0-14.9 12.1-27.1 27.1-27.1z" fill="#4678fd"/><path d="M138.9 371.7h7.7c5.4 0 10.8 1 15.9 3l52.6 20.3c7.4 2.9 15.1 4.3 23.1 4.3h56.2c19.2 0 34.8-15.6 34.8-34.8 0-5.4-1.2-10.5-3.4-15.1 17.2-2.1 30.5-16.8 30.5-34.6 0-5.6-1.3-10.8-3.6-15.5 16-3.2 28-17.3 28-34.1 0-5.3-1.2-10.3-3.3-14.8h61.4c19.2 0 34.8-15.6 34.8-34.8s-15.6-34.8-34.8-34.8H284.4l10.6-10.6c6.6-6.6 10.2-15.3 10.2-24.6s-3.6-18-10.2-24.6c-13.5-13.5-35.4-13.6-49-.2L165.4 192c-7.5 6.6-16.9 10.4-26.7 11-3.7-16.5-18.5-28.9-36.2-28.9h-27c-20.4 0-37.1 16.6-37.1 37.1v153.4c0 20.4 16.6 37.1 37.1 37.1h27.1c17.9-.4 32.9-13.1 36.3-30zm33.2-172.4 80.8-71.3c9.7-9.7 25.4-9.7 35.1 0 9.7 9.7 9.7 25.4 0 35.1l-27.7 27.7h178.5c13.7 0 24.8 11.1 24.8 24.8s-11.1 24.8-24.8 24.8H288.1c-2.8 0-5 2.2-5 5s2.2 5 5 5h77.6c3.1 4.1 4.9 9.3 4.9 14.8 0 13.7-11.1 24.8-24.8 24.8h-67c-2.6 0-4.7 2.1-4.7 4.7v.6c0 2.6 2.1 4.7 4.7 4.7h62.6c3.1 4.1 4.9 9.3 4.9 14.8 0 13.7-11.1 24.8-24.8 24.8H270c-2.8 0-5 2.2-5 5s2.2 5 5 5h44.2c3.1 4.1 4.9 9.3 4.9 14.8 0 13.7-11.1 24.8-24.8 24.8h-56.2c-6.7 0-13.3-1.2-19.5-3.6L166 365.3c-6.2-2.4-12.8-3.6-19.5-3.6h-7v-149c12.1-.8 23.6-5.5 32.6-13.4zm-96.6 192c-15 0-27.1-12.1-27.1-27.1V210.9c0-14.9 12.1-27.1 27.1-27.1h27.1c14.9 0 27.1 12.1 27.1 27.1v153.4c0 15-12.1 27.1-27.1 27.1H75.5z"/></g></g></svg>