<svg version="1.1" xmlns="http://www.w3.org/2000/svg" xmlns:xlink="http://www.w3.org/1999/xlink">
  <defs>
    <symbol id="grid"  viewBox="0 0 490.667 490.667">
    <!-- first svg icon -->
    <path d="M480,192c5.891,0,10.667-4.776,10.667-10.667c0-5.891-4.776-10.667-10.667-10.667h-32V64h32
	c5.891,0,10.667-4.776,10.667-10.667S485.891,42.667,480,42.667h-32v-32C448,4.776,443.224,0,437.333,0s-10.667,4.776-10.667,10.667
	v32H320v-32C320,4.776,315.224,0,309.333,0s-10.667,4.776-10.667,10.667v32H192v-32C192,4.776,187.224,0,181.333,0
	c-5.891,0-10.667,4.776-10.667,10.667v32H64v-32C64,4.776,59.224,0,53.333,0S42.667,4.776,42.667,10.667v32h-32
	C4.776,42.667,0,47.442,0,53.333S4.776,64,10.667,64h32v106.667h-32C4.776,170.667,0,175.442,0,181.333
	C0,187.224,4.776,192,10.667,192h32v106.667h-32C4.776,298.667,0,303.442,0,309.333S4.776,320,10.667,320h32v106.667h-32
	C4.776,426.667,0,431.442,0,437.333S4.776,448,10.667,448h32v32c0,5.891,4.776,10.667,10.667,10.667S64,485.891,64,480v-32h106.667
	v32c0,5.891,4.776,10.667,10.667,10.667c5.891,0,10.667-4.776,10.667-10.667v-32h106.667v32c0,5.891,4.776,10.667,10.667,10.667
	S320,485.891,320,480v-32h106.667v32c0,5.891,4.776,10.667,10.667,10.667S448,485.891,448,480v-32h32
	c5.891,0,10.667-4.776,10.667-10.667s-4.776-10.667-10.667-10.667h-32V320h32c5.891,0,10.667-4.776,10.667-10.667
	s-4.776-10.667-10.667-10.667h-32V192H480z M426.667,64v106.667H320V64H426.667z M298.667,64v106.667H192V64H298.667z M298.667,192
	v106.667H192V192H298.667z M64,64h106.667v106.667H64V64z M64,192h106.667v106.667H64V192z M64,426.667V320h106.667v106.667H64z
	 M192,426.667V320h106.667v106.667H192z M426.667,426.667H320V320h106.667V426.667z M426.667,298.667H320V192h106.667V298.667z"/>
    </symbol>

    <symbol id="dot"  viewBox="0 0 29.107 29.107">
    <!-- second svg icon -->
		<path d="M14.554,0C6.561,0,0,6.562,0,14.552c0,7.996,6.561,14.555,14.554,14.555c7.996,0,14.553-6.559,14.553-14.555
				C29.106,6.562,22.55,0,14.554,0z"/>
    </symbol>


    <symbol id="home"  viewBox="0 0 682.66669 682.66669">
    <!-- second svg icon -->
     <g
     id="g1095"
     transform="matrix(1.3333333,0,0,-1.3333333,0,682.66667)"><g
       id="g1097"><g
         id="g1099"
         clip-path="url(#clipPath1103)"><g
           id="g1105"
           transform="translate(20,332.0356)"><path
             d="M 0,0 213.004,152.733 C 219.508,157.312 227.44,160 236,160 c 8.56,0 16.492,-2.688 22.996,-7.267 L 472,0"
             style="stroke:#00000000;stroke-width:40;stroke-linecap:round;stroke-linejoin:round;stroke-miterlimit:10;stroke-dasharray:none;stroke-opacity:1"
             id="path1107" /></g><g
           id="g1109"
           transform="translate(278.9956,384.77)"><path
             d="M 0,0 C -6.504,4.578 -14.436,7.266 -22.996,7.266 -31.555,7.266 -39.487,4.578 -45.991,0 l -156.027,-112.631 c -10.644,-7.492 -16.978,-19.694 -16.978,-32.71 v -179.393 c 0,-22.092 17.909,-40 40,-40 h 116 v 80 c 0,22.091 17.909,40 40,40 22.092,0 40,-17.909 40,-40 v -80 h 116 c 22.092,0 40,17.908 40,40 v 179.393 c 0,13.016 -6.333,25.218 -16.977,32.71 z"
             style="stroke:#00000000;stroke-width:40;stroke-linecap:round;stroke-linejoin:round;stroke-miterlimit:10;stroke-dasharray:none;stroke-opacity:1"
             id="path1111" />
    </symbol>
    <symbol id="to-top"  viewBox="0 0 512 512">
    <!-- second svg icon -->
    <path style="stroke:#00000000;stroke-width:40;stroke-linecap:round;stroke-linejoin:round;stroke-miterlimit:10;stroke-dasharray:none;stroke-opacity:1" d="m255.002 505.976h2.145c36.463 0 66.131-29.668 66.131-66.131v-206.932l29.575 29.569c25.841 25.853 67.677 25.85 93.515 0l.017-.017c25.845-25.833 25.849-67.695-.012-93.532l-143.671-143.592c-25.785-25.762-67.735-25.756-93.509.017l-143.574 143.58c-25.853 25.841-25.85 67.677 0 93.515 25.824 25.824 67.712 25.851 93.55-.035l29.703-29.744v207.171c-.001 36.463 29.667 66.131 66.13 66.131zm-112.679-260.38c-16.516 16.54-43.32 16.574-59.871.023-16.511-16.511-16.572-43.275 0-59.848l143.574-143.58c16.496-16.496 43.345-16.491 59.842-.006l143.673 143.591c16.518 16.494 16.584 43.281.012 59.853l-.017.017c-15.985 15.997-43.863 15.997-59.848 0l-49.896-49.89c-3.418-3.412-8.521-4.441-12.974-2.581-4.447 1.843-7.347 6.185-7.347 10.998v235.67c0 23.338-18.984 42.322-42.322 42.322h-2.145c-23.338 0-42.322-18.984-42.322-42.322v-235.942c0-4.819-2.901-9.161-7.353-10.998-1.471-.61-3.017-.907-4.551-.907-3.098 0-6.144 1.209-8.423 3.493z"/>
    </symbol>

    <symbol id="to-bottom"  viewBox="0 0 512 512">
    <!-- second svg icon -->
  <path d="m257.001 6.022h-2.151c-36.469 0-66.137 29.668-66.137 66.131v206.926l-29.563-29.563c-25.785-25.774-67.753-25.779-93.538.017-25.84 25.828-25.856 67.689.012 93.532l143.678 143.585c25.781 25.769 67.717 25.774 93.503-.012l143.574-143.58c25.857-25.833 25.861-67.677 0-93.515-25.812-25.824-67.724-25.851-93.561.035l-29.691 29.744v-207.169c-.001-36.463-29.669-66.131-66.126-66.131zm112.673 260.38c16.514-16.55 43.32-16.562 59.871-.023s16.551 43.308 0 59.848l-143.574 143.58c-16.508 16.496-43.351 16.502-59.836.006l-143.678-143.593c-16.534-16.51-16.563-43.314-.012-59.853l.012-.017c16.501-16.489 43.351-16.497 59.859 0l49.885 49.89c3.418 3.412 8.533 4.435 12.974 2.581 4.441-1.843 7.347-6.185 7.347-10.998v-235.67c0-23.338 18.984-42.322 42.328-42.322h2.151c23.332 0 42.316 18.984 42.316 42.322v235.943c0 4.819 2.906 9.161 7.359 10.998 4.429 1.837 9.579.82 12.974-2.587z"/>
    </symbol>

    <symbol id="flexbox"  viewBox="0 0 48 48">
    <!-- second svg icon -->
    <path style="-inkscape-stroke:none" d="M1176.3 562.25a1 1 0 0 0-1 1v20a1 1 0 0 0 1 1h11a1 1 0 0 0 1-1v-20a1 1 0 0 0-1-1zm15 0a1 1 0 0 0-1 1v8a1 1 0 0 0 1 1h11a1 1 0 0 0 1-1v-8a1 1 0 0 0-1-1zm0 12a1 1 0 0 0-1 1v8a1 1 0 0 0 1 1h11a1 1 0 0 0 1-1v-8a1 1 0 0 0-1-1zm-14.7-17.9a1.25 1.25 0 1 0 0 2.5 1.25 1.25 0 0 0 0-2.5zm3.8 0a1.25 1.25 0 1 0 0 2.5 1.25 1.25 0 0 0 0-2.5zm3.8 0a1.25 1.25 0 1 0 0 2.5 1.25 1.25 0 0 0 0-2.5z" transform="translate(-1165.3 -546.16)" fill="#000000" class="color000 svgShape"></path><path style="-inkscape-stroke:none" d="M1176 552.16a4.789 4.789 0 0 0-4.777 4.777v7.766a1 1 0 0 0 1 1 1 1 0 0 0 1-1v-7.766a2.75 2.75 0 0 1 2.777-2.777h26.446a2.75 2.75 0 0 1 2.777 2.777v12.338a1 1 0 0 0 1 1 1 1 0 0 0 1-1v-12.338a4.789 4.789 0 0 0-4.777-4.777zm-3.7 15.54a1 1 0 0 0-1 1 1 1 0 0 0 1 1 1 1 0 0 0 1-1 1 1 0 0 0-1-1zm0 4a1 1 0 0 0-1 1v10.68a4.789 4.789 0 0 0 4.777 4.777h26.446a4.789 4.789 0 0 0 4.777-4.777v-10.108a1 1 0 0 0-1-1 1 1 0 0 0-1 1v10.108a2.75 2.75 0 0 1-2.777 2.777h-26.446a2.75 2.75 0 0 1-2.777-2.777V572.7a1 1 0 0 0-1-1z" transform="translate(-1165.3 -546.16)" fill="#000000" class="color000 svgShape"></path><path style="-inkscape-stroke:none" d="M1188.6 556.6a1 1 0 0 0-1 1 1 1 0 0 0 1 1h13.416a1 1 0 0 0 1-1 1 1 0 0 0-1-1z" transform="translate(-1165.3 -546.16)" fill="#000000" class="color000 svgShape"></path>
    </symbol>
    <symbol id="git"  viewBox="0 0 24 24">
    <!-- second svg icon -->
    <path d="m7.10495 15.21c.65365.2591 1.19556.7395 1.53118 1.3574.33562.6178.44362 1.3339.30517 2.0233s-.51457 1.3082-1.06272 1.7486-1.23353.6743-1.93654.6609c-.70301-.0133-1.37901-.2731-1.91004-.734-.53102-.4609-.88336-1.0936-.99552-1.7877s.02297-1.4056.38182-2.0103.91862-1.0641 1.58165-1.2982v-6.34002c-.6675-.2359-1.2301-.7002-1.58836-1.3108-.35827-.61061-.48913-1.32822-.36946-2.02599.11968-.69776.48218-1.33075 1.02344-1.78708s1.22642-.70662 1.93438-.70662c.70795 0 1.39311.25029 1.93437.70662s.90376 1.08932 1.02344 1.78708c.11967.69777-.01119 1.41538-.36945 2.02599-.35827.6106-.92087 1.0749-1.58836 1.3108v3.17002c.836-.628 1.874-1 3-1h3.99995c.6582 0 1.298-.2163 1.8211-.6156.5231-.39936.9005-.95958 1.0739-1.59442-.6568-.26009-1.2008-.74357-1.5362-1.36531-.3354-.62173-.4408-1.34187-.2975-2.03363s.5261-1.3108 1.0809-1.74812 1.2461-.66489 1.9522-.64265 1.3817.29286 1.9079.76423.8692 1.11326.9687 1.81267-.0509 1.41149-.4248 2.01089c-.3739.59939-.9473 1.04768-1.6192 1.26592-.2014 1.16072-.806 2.21302-1.7074 2.97152-.9013.7585-2.0415 1.1744-3.2196 1.1745h-3.99995c-.65811 0-1.29799.2163-1.8211.6156-.5231.3993-.90044.9595-1.0739 1.5944zm-1.105 1.79c-.26522 0-.51957.1053-.70711.2929-.18754.1875-.29289.4419-.29289.7071s.10535.5196.29289.7071.44189.2929.70711.2929c.26521 0 .51957-.1054.7071-.2929.18754-.1875.2929-.4419.2929-.7071s-.10536-.5196-.2929-.7071c-.18753-.1876-.44189-.2929-.7071-.2929zm0-12.00002c-.26522 0-.51957.10536-.70711.2929-.18754.18753-.29289.44189-.29289.7071 0 .26522.10535.51957.29289.70711.18754.18753.44189.29289.70711.29289.26521 0 .51957-.10536.7071-.29289.18754-.18754.2929-.44189.2929-.70711 0-.26521-.10536-.51957-.2929-.7071-.18753-.18754-.44189-.2929-.7071-.2929zm11.99995 0c-.2652 0-.5195.10536-.7071.2929-.1875.18753-.2929.44189-.2929.7071 0 .26522.1054.51957.2929.70711.1876.18753.4419.29289.7071.29289.2653 0 .5196-.10536.7072-.29289.1875-.18754.2928-.44189.2928-.70711 0-.26521-.1053-.51957-.2928-.7071-.1876-.18754-.4419-.2929-.7072-.2929z" fill="rgb(0,0,0)"/>
    </symbol>

    <symbol id="dayMode"  viewBox="0 0 24 24">
    <!-- second svg icon -->
   <path fill="#fff" d="m12 22.75a10.75 10.75 0 0 1 -1.085-21.45.754.754 0 0 1 .7.332.746.746 0 0 1 .033.774 7.387 7.387 0 0 0 -.898 3.594 7.021 7.021 0 0 0 6.75 7.25 6.385 6.385 0 0 0 4.021-1.436.75.75 0 0 1 1.218.615 10.713 10.713 0 0 1 -10.739 10.321zm-2.261-19.724a9.252 9.252 0 1 0 11.317 10.868 7.771 7.771 0 0 1 -3.556.856 8.521 8.521 0 0 1 -8.25-8.75 9.045 9.045 0 0 1 .489-2.974z"/></g>
    </symbol>
    <symbol id="nightMode"  viewBox="0 0 32 32">
    <!-- second svg icon -->
    <path fill="#000000" d="m30.706 19.721a1 1 0 0 0 -1.042-.234 13.423 13.423 0 0 1 -17.151-17.152 1 1 0 0 0 -1.276-1.278 15.214 15.214 0 0 0 -5.727 3.623 15.422 15.422 0 0 0 21.81 21.81 15.214 15.214 0 0 0 3.623-5.728 1 1 0 0 0 -.237-1.041z"/>
    </symbol>



    <symbol id=""  viewBox="0 0 128 128">
    <!-- second svg icon -->
    <path d="m35.4 72 28.6-28.6 28.6 28.6-7.1 7.1-21.5-21.6-21.5 21.6zm28.6-58c27.6 0 50 22.4 50 50s-22.4 50-50 50-50-22.4-50-50 22.4-50 50-50zm0 10c-22.1 0-40 17.9-40 40s17.9 40 40 40 40-17.9 40-40-17.9-40-40-40z"/>
    </symbol>
    <symbol id=""  viewBox="0 0 128 128">
    <!-- second svg icon -->
    <path d="m35.4 72 28.6-28.6 28.6 28.6-7.1 7.1-21.5-21.6-21.5 21.6zm28.6-58c27.6 0 50 22.4 50 50s-22.4 50-50 50-50-22.4-50-50 22.4-50 50-50zm0 10c-22.1 0-40 17.9-40 40s17.9 40 40 40 40-17.9 40-40-17.9-40-40-40z"/>
    </symbol>
    <symbol id=""  viewBox="0 0 128 128">
    <!-- second svg icon -->
    <path d="m35.4 72 28.6-28.6 28.6 28.6-7.1 7.1-21.5-21.6-21.5 21.6zm28.6-58c27.6 0 50 22.4 50 50s-22.4 50-50 50-50-22.4-50-50 22.4-50 50-50zm0 10c-22.1 0-40 17.9-40 40s17.9 40 40 40 40-17.9 40-40-17.9-40-40-40z"/>
    </symbol>
    <symbol id=""  viewBox="0 0 128 128">
    <!-- second svg icon -->
    <path d="m35.4 72 28.6-28.6 28.6 28.6-7.1 7.1-21.5-21.6-21.5 21.6zm28.6-58c27.6 0 50 22.4 50 50s-22.4 50-50 50-50-22.4-50-50 22.4-50 50-50zm0 10c-22.1 0-40 17.9-40 40s17.9 40 40 40 40-17.9 40-40-17.9-40-40-40z"/>
    </symbol>
    <symbol id=""  viewBox="0 0 128 128">
    <!-- second svg icon -->
    <path d="m35.4 72 28.6-28.6 28.6 28.6-7.1 7.1-21.5-21.6-21.5 21.6zm28.6-58c27.6 0 50 22.4 50 50s-22.4 50-50 50-50-22.4-50-50 22.4-50 50-50zm0 10c-22.1 0-40 17.9-40 40s17.9 40 40 40 40-17.9 40-40-17.9-40-40-40z"/>
    </symbol>


  </defs>
</svg>
