<svg version="1.1" xmlns="http://www.w3.org/2000/svg" xmlns:xlink="http://www.w3.org/1999/xlink">
  <defs>
    <symbol id="grid"  viewBox="0 0 490.667 490.667">
    <!-- first svg icon -->
    <path d="M480,192c5.891,0,10.667-4.776,10.667-10.667c0-5.891-4.776-10.667-10.667-10.667h-32V64h32
	c5.891,0,10.667-4.776,10.667-10.667S485.891,42.667,480,42.667h-32v-32C448,4.776,443.224,0,437.333,0s-10.667,4.776-10.667,10.667
	v32H320v-32C320,4.776,315.224,0,309.333,0s-10.667,4.776-10.667,10.667v32H192v-32C192,4.776,187.224,0,181.333,0
	c-5.891,0-10.667,4.776-10.667,10.667v32H64v-32C64,4.776,59.224,0,53.333,0S42.667,4.776,42.667,10.667v32h-32
	C4.776,42.667,0,47.442,0,53.333S4.776,64,10.667,64h32v106.667h-32C4.776,170.667,0,175.442,0,181.333
	C0,187.224,4.776,192,10.667,192h32v106.667h-32C4.776,298.667,0,303.442,0,309.333S4.776,320,10.667,320h32v106.667h-32
	C4.776,426.667,0,431.442,0,437.333S4.776,448,10.667,448h32v32c0,5.891,4.776,10.667,10.667,10.667S64,485.891,64,480v-32h106.667
	v32c0,5.891,4.776,10.667,10.667,10.667c5.891,0,10.667-4.776,10.667-10.667v-32h106.667v32c0,5.891,4.776,10.667,10.667,10.667
	S320,485.891,320,480v-32h106.667v32c0,5.891,4.776,10.667,10.667,10.667S448,485.891,448,480v-32h32
	c5.891,0,10.667-4.776,10.667-10.667s-4.776-10.667-10.667-10.667h-32V320h32c5.891,0,10.667-4.776,10.667-10.667
	s-4.776-10.667-10.667-10.667h-32V192H480z M426.667,64v106.667H320V64H426.667z M298.667,64v106.667H192V64H298.667z M298.667,192
	v106.667H192V192H298.667z M64,64h106.667v106.667H64V64z M64,192h106.667v106.667H64V192z M64,426.667V320h106.667v106.667H64z
	 M192,426.667V320h106.667v106.667H192z M426.667,426.667H320V320h106.667V426.667z M426.667,298.667H320V192h106.667V298.667z"/>
    </symbol>

    <symbol id="dot"  viewBox="0 0 29.107 29.107">
    <!-- second svg icon -->
		<path d="M14.554,0C6.561,0,0,6.562,0,14.552c0,7.996,6.561,14.555,14.554,14.555c7.996,0,14.553-6.559,14.553-14.555
				C29.106,6.562,22.55,0,14.554,0z"/>
    </symbol>


    <symbol id="home"  viewBox="0 0 682.66669 682.66669">
    <!-- second svg icon -->
     <g
     id="g1095"
     transform="matrix(1.3333333,0,0,-1.3333333,0,682.66667)"><g
       id="g1097"><g
         id="g1099"
         clip-path="url(#clipPath1103)"><g
           id="g1105"
           transform="translate(20,332.0356)"><path
             d="M 0,0 213.004,152.733 C 219.508,157.312 227.44,160 236,160 c 8.56,0 16.492,-2.688 22.996,-7.267 L 472,0"
             style="fill:none;stroke:#000000;stroke-width:40;stroke-linecap:round;stroke-linejoin:round;stroke-miterlimit:10;stroke-dasharray:none;stroke-opacity:1"
             id="path1107" /></g><g
           id="g1109"
           transform="translate(278.9956,384.77)"><path
             d="M 0,0 C -6.504,4.578 -14.436,7.266 -22.996,7.266 -31.555,7.266 -39.487,4.578 -45.991,0 l -156.027,-112.631 c -10.644,-7.492 -16.978,-19.694 -16.978,-32.71 v -179.393 c 0,-22.092 17.909,-40 40,-40 h 116 v 80 c 0,22.091 17.909,40 40,40 22.092,0 40,-17.909 40,-40 v -80 h 116 c 22.092,0 40,17.908 40,40 v 179.393 c 0,13.016 -6.333,25.218 -16.977,32.71 z"
             style="fill:none;stroke:#000000;stroke-width:40;stroke-linecap:round;stroke-linejoin:round;stroke-miterlimit:10;stroke-dasharray:none;stroke-opacity:1"
             id="path1111" />
    </symbol>
    <symbol id="to-top"  viewBox="0 0 128 128">
    <!-- second svg icon -->
    <path d="m35.4 72 28.6-28.6 28.6 28.6-7.1 7.1-21.5-21.6-21.5 21.6zm28.6-58c27.6 0 50 22.4 50 50s-22.4 50-50 50-50-22.4-50-50 22.4-50 50-50zm0 10c-22.1 0-40 17.9-40 40s17.9 40 40 40 40-17.9 40-40-17.9-40-40-40z"/>
    </symbol>


    <symbol id="flexbox"  viewBox="0 0 48 48">
    <!-- second svg icon -->
    <path style="-inkscape-stroke:none" d="M1176.3 562.25a1 1 0 0 0-1 1v20a1 1 0 0 0 1 1h11a1 1 0 0 0 1-1v-20a1 1 0 0 0-1-1zm15 0a1 1 0 0 0-1 1v8a1 1 0 0 0 1 1h11a1 1 0 0 0 1-1v-8a1 1 0 0 0-1-1zm0 12a1 1 0 0 0-1 1v8a1 1 0 0 0 1 1h11a1 1 0 0 0 1-1v-8a1 1 0 0 0-1-1zm-14.7-17.9a1.25 1.25 0 1 0 0 2.5 1.25 1.25 0 0 0 0-2.5zm3.8 0a1.25 1.25 0 1 0 0 2.5 1.25 1.25 0 0 0 0-2.5zm3.8 0a1.25 1.25 0 1 0 0 2.5 1.25 1.25 0 0 0 0-2.5z" transform="translate(-1165.3 -546.16)" fill="#000000" class="color000 svgShape"></path><path style="-inkscape-stroke:none" d="M1176 552.16a4.789 4.789 0 0 0-4.777 4.777v7.766a1 1 0 0 0 1 1 1 1 0 0 0 1-1v-7.766a2.75 2.75 0 0 1 2.777-2.777h26.446a2.75 2.75 0 0 1 2.777 2.777v12.338a1 1 0 0 0 1 1 1 1 0 0 0 1-1v-12.338a4.789 4.789 0 0 0-4.777-4.777zm-3.7 15.54a1 1 0 0 0-1 1 1 1 0 0 0 1 1 1 1 0 0 0 1-1 1 1 0 0 0-1-1zm0 4a1 1 0 0 0-1 1v10.68a4.789 4.789 0 0 0 4.777 4.777h26.446a4.789 4.789 0 0 0 4.777-4.777v-10.108a1 1 0 0 0-1-1 1 1 0 0 0-1 1v10.108a2.75 2.75 0 0 1-2.777 2.777h-26.446a2.75 2.75 0 0 1-2.777-2.777V572.7a1 1 0 0 0-1-1z" transform="translate(-1165.3 -546.16)" fill="#000000" class="color000 svgShape"></path><path style="-inkscape-stroke:none" d="M1188.6 556.6a1 1 0 0 0-1 1 1 1 0 0 0 1 1h13.416a1 1 0 0 0 1-1 1 1 0 0 0-1-1z" transform="translate(-1165.3 -546.16)" fill="#000000" class="color000 svgShape"></path>
    </symbol>
    <symbol id=""  viewBox="0 0 128 128">
    <!-- second svg icon -->
    <path d="m35.4 72 28.6-28.6 28.6 28.6-7.1 7.1-21.5-21.6-21.5 21.6zm28.6-58c27.6 0 50 22.4 50 50s-22.4 50-50 50-50-22.4-50-50 22.4-50 50-50zm0 10c-22.1 0-40 17.9-40 40s17.9 40 40 40 40-17.9 40-40-17.9-40-40-40z"/>
    </symbol>


  </defs>
</svg>
