<svg id="SvgjsSvg1001" width="256" height="256" xmlns="http://www.w3.org/2000/svg" version="1.1" xmlns:xlink="http://www.w3.org/1999/xlink" xmlns:svgjs="http://svgjs.com/svgjs"><defs id="SvgjsDefs1002"></defs><g id="SvgjsG1008"><svg xmlns="http://www.w3.org/2000/svg" viewBox="0 0 48 48" width="256" height="256"><g color="#000" fill="#000000" class="color000 svgShape"><path style="-inkscape-stroke:none" d="M1176.3 562.25a1 1 0 0 0-1 1v20a1 1 0 0 0 1 1h11a1 1 0 0 0 1-1v-20a1 1 0 0 0-1-1zm15 0a1 1 0 0 0-1 1v8a1 1 0 0 0 1 1h11a1 1 0 0 0 1-1v-8a1 1 0 0 0-1-1zm0 12a1 1 0 0 0-1 1v8a1 1 0 0 0 1 1h11a1 1 0 0 0 1-1v-8a1 1 0 0 0-1-1zm-14.7-17.9a1.25 1.25 0 1 0 0 2.5 1.25 1.25 0 0 0 0-2.5zm3.8 0a1.25 1.25 0 1 0 0 2.5 1.25 1.25 0 0 0 0-2.5zm3.8 0a1.25 1.25 0 1 0 0 2.5 1.25 1.25 0 0 0 0-2.5z" transform="translate(-1165.3 -546.16)" fill="#000000" class="color000 svgShape"></path><path style="-inkscape-stroke:none" d="M1176 552.16a4.789 4.789 0 0 0-4.777 4.777v7.766a1 1 0 0 0 1 1 1 1 0 0 0 1-1v-7.766a2.75 2.75 0 0 1 2.777-2.777h26.446a2.75 2.75 0 0 1 2.777 2.777v12.338a1 1 0 0 0 1 1 1 1 0 0 0 1-1v-12.338a4.789 4.789 0 0 0-4.777-4.777zm-3.7 15.54a1 1 0 0 0-1 1 1 1 0 0 0 1 1 1 1 0 0 0 1-1 1 1 0 0 0-1-1zm0 4a1 1 0 0 0-1 1v10.68a4.789 4.789 0 0 0 4.777 4.777h26.446a4.789 4.789 0 0 0 4.777-4.777v-10.108a1 1 0 0 0-1-1 1 1 0 0 0-1 1v10.108a2.75 2.75 0 0 1-2.777 2.777h-26.446a2.75 2.75 0 0 1-2.777-2.777V572.7a1 1 0 0 0-1-1z" transform="translate(-1165.3 -546.16)" fill="#000000" class="color000 svgShape"></path><path style="-inkscape-stroke:none" d="M1188.6 556.6a1 1 0 0 0-1 1 1 1 0 0 0 1 1h13.416a1 1 0 0 0 1-1 1 1 0 0 0-1-1z" transform="translate(-1165.3 -546.16)" fill="#000000" class="color000 svgShape"></path></g></svg></g></svg>