<svg enable-background="new 0 0 512 512" viewBox="0 0 512 512" xmlns="http://www.w3.org/2000/svg"><g id="_x30_7_Arrow_Up"><g><path d="m255.002 505.976h2.145c36.463 0 66.131-29.668 66.131-66.131v-206.932l29.575 29.569c25.841 25.853 67.677 25.85 93.515 0l.017-.017c25.845-25.833 25.849-67.695-.012-93.532l-143.671-143.592c-25.785-25.762-67.735-25.756-93.509.017l-143.574 143.58c-25.853 25.841-25.85 67.677 0 93.515 25.824 25.824 67.712 25.851 93.55-.035l29.703-29.744v207.171c-.001 36.463 29.667 66.131 66.13 66.131zm-112.679-260.38c-16.516 16.54-43.32 16.574-59.871.023-16.511-16.511-16.572-43.275 0-59.848l143.574-143.58c16.496-16.496 43.345-16.491 59.842-.006l143.673 143.591c16.518 16.494 16.584 43.281.012 59.853l-.017.017c-15.985 15.997-43.863 15.997-59.848 0l-49.896-49.89c-3.418-3.412-8.521-4.441-12.974-2.581-4.447 1.843-7.347 6.185-7.347 10.998v235.67c0 23.338-18.984 42.322-42.322 42.322h-2.145c-23.338 0-42.322-18.984-42.322-42.322v-235.942c0-4.819-2.901-9.161-7.353-10.998-1.471-.61-3.017-.907-4.551-.907-3.098 0-6.144 1.209-8.423 3.493z"/></g></g><g id="Layer_1"/></svg>