<svg height="512" viewBox="0 0 24 24" width="512" xmlns="http://www.w3.org/2000/svg"><g id="Layer_2" data-name="Layer 2"><path d="m12 22.75a10.75 10.75 0 0 1 -1.085-21.45.754.754 0 0 1 .7.332.746.746 0 0 1 .033.774 7.387 7.387 0 0 0 -.898 3.594 7.021 7.021 0 0 0 6.75 7.25 6.385 6.385 0 0 0 4.021-1.436.75.75 0 0 1 1.218.615 10.713 10.713 0 0 1 -10.739 10.321zm-2.261-19.724a9.252 9.252 0 1 0 11.317 10.868 7.771 7.771 0 0 1 -3.556.856 8.521 8.521 0 0 1 -8.25-8.75 9.045 9.045 0 0 1 .489-2.974z"/></g></svg>